<svg width="201" height="41" viewBox="0 0 201 41" fill="none" xmlns="http://www.w3.org/2000/svg">
<g filter="url(#filter0_d_195_416)">
<path d="M8.768 11L5.478 2.236H5.422C5.44067 2.42267 5.45467 2.66067 5.464 2.95C5.48267 3.23933 5.49667 3.55667 5.506 3.902C5.51533 4.238 5.52 4.58333 5.52 4.938V11H4.358V1.004H6.22L9.3 9.194H9.356L12.492 1.004H14.34V11H13.094V4.854C13.094 4.52733 13.0987 4.20533 13.108 3.888C13.1173 3.56133 13.1313 3.258 13.15 2.978C13.1687 2.68867 13.1827 2.446 13.192 2.25H13.136L9.804 11H8.768ZM19.7892 3.356C20.4332 3.356 20.9838 3.496 21.4412 3.776C21.9078 4.056 22.2625 4.45267 22.5052 4.966C22.7572 5.47 22.8832 6.06267 22.8832 6.744V7.486H17.7452C17.7638 8.33533 17.9785 8.984 18.3892 9.432C18.8092 9.87067 19.3925 10.09 20.1392 10.09C20.6152 10.09 21.0352 10.048 21.3992 9.964C21.7725 9.87067 22.1552 9.74 22.5472 9.572V10.65C22.1645 10.818 21.7865 10.9393 21.4132 11.014C21.0398 11.098 20.5965 11.14 20.0832 11.14C19.3738 11.14 18.7438 10.9953 18.1932 10.706C17.6518 10.4167 17.2272 9.98733 16.9192 9.418C16.6205 8.83933 16.4712 8.13467 16.4712 7.304C16.4712 6.48267 16.6065 5.778 16.8772 5.19C17.1572 4.602 17.5445 4.14933 18.0392 3.832C18.5432 3.51467 19.1265 3.356 19.7892 3.356ZM19.7752 4.364C19.1872 4.364 18.7205 4.55533 18.3752 4.938C18.0392 5.31133 17.8385 5.834 17.7732 6.506H21.5952C21.5952 6.07667 21.5298 5.70333 21.3992 5.386C21.2685 5.06867 21.0678 4.82133 20.7972 4.644C20.5358 4.45733 20.1952 4.364 19.7752 4.364ZM30.3655 3.496V9.964H31.4575V13.604H30.2675V11H25.0455V13.604H23.8695V9.964H24.4715C24.9008 9.36667 25.2555 8.718 25.5355 8.018C25.8248 7.30867 26.0395 6.57133 26.1795 5.806C26.3288 5.03133 26.4082 4.26133 26.4175 3.496H30.3655ZM27.5095 4.462C27.4722 5.09667 27.3742 5.75467 27.2155 6.436C27.0568 7.108 26.8515 7.752 26.5995 8.368C26.3568 8.984 26.0722 9.516 25.7455 9.964H29.1755V4.462H27.5095ZM34.0903 8.074C34.0903 8.158 34.0856 8.27933 34.0763 8.438C34.0763 8.58733 34.0716 8.75067 34.0623 8.928C34.0529 9.096 34.0436 9.25933 34.0343 9.418C34.0249 9.56733 34.0156 9.68867 34.0063 9.782L38.0243 3.496H39.5363V11H38.3883V6.576C38.3883 6.42667 38.3883 6.23067 38.3883 5.988C38.3976 5.74533 38.4069 5.50733 38.4163 5.274C38.4256 5.03133 38.4349 4.84933 38.4443 4.728L34.4543 11H32.9283V3.496H34.0903V8.074ZM49.3304 13.604H48.1264V11H41.9244V3.496H43.1564V9.964H47.0344V3.496H48.2664V9.978H49.3304V13.604ZM51.9321 8.074C51.9321 8.158 51.9274 8.27933 51.9181 8.438C51.9181 8.58733 51.9134 8.75067 51.9041 8.928C51.8947 9.096 51.8854 9.25933 51.8761 9.418C51.8667 9.56733 51.8574 9.68867 51.8481 9.782L55.8661 3.496H57.3781V11H56.2301V6.576C56.2301 6.42667 56.2301 6.23067 56.2301 5.988C56.2394 5.74533 56.2487 5.50733 56.2581 5.274C56.2674 5.03133 56.2767 4.84933 56.2861 4.728L52.2961 11H50.7701V3.496H51.9321V8.074ZM60.9982 3.496V6.618H65.0722V3.496H66.3042V11H65.0722V7.654H60.9982V11H59.7662V3.496H60.9982ZM71.6902 11.14C71.0276 11.14 70.4349 11.0047 69.9122 10.734C69.3989 10.4633 68.9929 10.0433 68.6942 9.474C68.4049 8.90467 68.2602 8.17667 68.2602 7.29C68.2602 6.366 68.4142 5.61467 68.7222 5.036C69.0302 4.45733 69.4456 4.03267 69.9682 3.762C70.5002 3.49133 71.1022 3.356 71.7742 3.356C72.1569 3.356 72.5256 3.398 72.8802 3.482C73.2349 3.55667 73.5242 3.65 73.7482 3.762L73.3702 4.784C73.1462 4.7 72.8849 4.62067 72.5862 4.546C72.2876 4.47133 72.0076 4.434 71.7462 4.434C71.2422 4.434 70.8269 4.54133 70.5002 4.756C70.1736 4.97067 69.9309 5.288 69.7722 5.708C69.6136 6.128 69.5342 6.65067 69.5342 7.276C69.5342 7.87333 69.6136 8.382 69.7722 8.802C69.9309 9.222 70.1689 9.53933 70.4862 9.754C70.8036 9.96867 71.2002 10.076 71.6762 10.076C72.0869 10.076 72.4462 10.034 72.7542 9.95C73.0716 9.866 73.3609 9.76333 73.6222 9.642V10.734C73.3702 10.8647 73.0902 10.9627 72.7822 11.028C72.4836 11.1027 72.1196 11.14 71.6902 11.14ZM79.8448 3.496H81.1888L77.9828 7.108L81.4548 11H80.0268L76.6388 7.192V11H75.4068V3.496H76.6388V7.136L79.8448 3.496ZM83.979 8.074C83.979 8.158 83.9743 8.27933 83.965 8.438C83.965 8.58733 83.9603 8.75067 83.951 8.928C83.9416 9.096 83.9323 9.25933 83.923 9.418C83.9136 9.56733 83.9043 9.68867 83.895 9.782L87.913 3.496H89.425V11H88.277V6.576C88.277 6.42667 88.277 6.23067 88.277 5.988C88.2863 5.74533 88.2956 5.50733 88.305 5.274C88.3143 5.03133 88.3236 4.84933 88.333 4.728L84.343 11H82.817V3.496H83.979V8.074ZM94.711 3.356C95.355 3.356 95.9057 3.496 96.363 3.776C96.8297 4.056 97.1844 4.45267 97.427 4.966C97.679 5.47 97.805 6.06267 97.805 6.744V7.486H92.667C92.6857 8.33533 92.9004 8.984 93.311 9.432C93.731 9.87067 94.3144 10.09 95.061 10.09C95.537 10.09 95.957 10.048 96.321 9.964C96.6944 9.87067 97.077 9.74 97.469 9.572V10.65C97.0864 10.818 96.7084 10.9393 96.335 11.014C95.9617 11.098 95.5184 11.14 95.005 11.14C94.2957 11.14 93.6657 10.9953 93.115 10.706C92.5737 10.4167 92.149 9.98733 91.841 9.418C91.5424 8.83933 91.393 8.13467 91.393 7.304C91.393 6.48267 91.5284 5.778 91.799 5.19C92.079 4.602 92.4664 4.14933 92.961 3.832C93.465 3.51467 94.0484 3.356 94.711 3.356ZM94.697 4.364C94.109 4.364 93.6424 4.55533 93.297 4.938C92.961 5.31133 92.7604 5.834 92.695 6.506H96.517C96.517 6.07667 96.4517 5.70333 96.321 5.386C96.1904 5.06867 95.9897 4.82133 95.719 4.644C95.4577 4.45733 95.117 4.364 94.697 4.364ZM108.696 3.496V11H107.464V4.546H103.586V11H102.354V3.496H108.696ZM114.66 3.356C115.584 3.356 116.326 3.678 116.886 4.322C117.456 4.966 117.74 5.93667 117.74 7.234C117.74 8.08333 117.61 8.802 117.348 9.39C117.096 9.96867 116.737 10.4073 116.27 10.706C115.813 10.9953 115.272 11.14 114.646 11.14C114.264 11.14 113.923 11.0887 113.624 10.986C113.326 10.8833 113.069 10.7527 112.854 10.594C112.649 10.426 112.472 10.244 112.322 10.048H112.238C112.257 10.2067 112.276 10.4073 112.294 10.65C112.313 10.8927 112.322 11.1027 112.322 11.28V14.36H111.09V3.496H112.098L112.266 4.518H112.322C112.472 4.30333 112.649 4.10733 112.854 3.93C113.069 3.75267 113.321 3.61267 113.61 3.51C113.909 3.40733 114.259 3.356 114.66 3.356ZM114.436 4.392C113.932 4.392 113.526 4.49 113.218 4.686C112.91 4.87267 112.686 5.15733 112.546 5.54C112.406 5.92267 112.332 6.408 112.322 6.996V7.234C112.322 7.85 112.388 8.37267 112.518 8.802C112.649 9.23133 112.868 9.558 113.176 9.782C113.494 10.006 113.923 10.118 114.464 10.118C114.922 10.118 115.295 9.992 115.584 9.74C115.883 9.488 116.102 9.14733 116.242 8.718C116.392 8.27933 116.466 7.78 116.466 7.22C116.466 6.36133 116.298 5.67533 115.962 5.162C115.636 4.64867 115.127 4.392 114.436 4.392ZM126.228 7.234C126.228 7.85933 126.144 8.41467 125.976 8.9C125.817 9.376 125.584 9.782 125.276 10.118C124.977 10.454 124.608 10.7107 124.17 10.888C123.74 11.056 123.26 11.14 122.728 11.14C122.233 11.14 121.776 11.056 121.356 10.888C120.936 10.7107 120.572 10.454 120.264 10.118C119.956 9.782 119.713 9.376 119.536 8.9C119.368 8.41467 119.284 7.85933 119.284 7.234C119.284 6.40333 119.424 5.70333 119.704 5.134C119.984 4.55533 120.385 4.11667 120.908 3.818C121.43 3.51 122.051 3.356 122.77 3.356C123.451 3.356 124.048 3.51 124.562 3.818C125.084 4.11667 125.49 4.55533 125.78 5.134C126.078 5.70333 126.228 6.40333 126.228 7.234ZM120.558 7.234C120.558 7.822 120.632 8.33533 120.782 8.774C120.94 9.20333 121.183 9.53467 121.51 9.768C121.836 10.0013 122.252 10.118 122.756 10.118C123.26 10.118 123.675 10.0013 124.002 9.768C124.328 9.53467 124.566 9.20333 124.716 8.774C124.874 8.33533 124.954 7.822 124.954 7.234C124.954 6.63667 124.874 6.128 124.716 5.708C124.557 5.288 124.314 4.966 123.988 4.742C123.67 4.50867 123.255 4.392 122.742 4.392C121.976 4.392 121.421 4.644 121.076 5.148C120.73 5.652 120.558 6.34733 120.558 7.234ZM132.66 3.384C133.407 3.44933 134.056 3.64533 134.606 3.972C135.166 4.29867 135.6 4.73733 135.908 5.288C136.216 5.83867 136.37 6.492 136.37 7.248C136.37 8.004 136.221 8.662 135.922 9.222C135.624 9.77267 135.199 10.2113 134.648 10.538C134.098 10.8553 133.435 11.0467 132.66 11.112V14.36H131.456V11.112C130.719 11.0467 130.07 10.8553 129.51 10.538C128.95 10.2113 128.516 9.77267 128.208 9.222C127.9 8.662 127.746 8.004 127.746 7.248C127.746 6.48267 127.896 5.82467 128.194 5.274C128.493 4.714 128.922 4.27533 129.482 3.958C130.042 3.63133 130.714 3.44 131.498 3.384V0.359999H132.66V3.384ZM131.498 4.406C130.929 4.462 130.462 4.60667 130.098 4.84C129.734 5.07333 129.464 5.39067 129.286 5.792C129.118 6.19333 129.034 6.67867 129.034 7.248C129.034 7.808 129.118 8.29333 129.286 8.704C129.464 9.10533 129.734 9.42733 130.098 9.67C130.462 9.90333 130.929 10.048 131.498 10.104V4.406ZM132.66 10.104C133.22 10.0387 133.678 9.88933 134.032 9.656C134.396 9.42267 134.662 9.10533 134.83 8.704C135.008 8.29333 135.096 7.808 135.096 7.248C135.096 6.688 135.008 6.20733 134.83 5.806C134.653 5.40467 134.382 5.08733 134.018 4.854C133.664 4.62067 133.211 4.476 132.66 4.42V10.104ZM144.849 7.234C144.849 7.85933 144.765 8.41467 144.597 8.9C144.438 9.376 144.205 9.782 143.897 10.118C143.598 10.454 143.229 10.7107 142.791 10.888C142.361 11.056 141.881 11.14 141.349 11.14C140.854 11.14 140.397 11.056 139.977 10.888C139.557 10.7107 139.193 10.454 138.885 10.118C138.577 9.782 138.334 9.376 138.157 8.9C137.989 8.41467 137.905 7.85933 137.905 7.234C137.905 6.40333 138.045 5.70333 138.325 5.134C138.605 4.55533 139.006 4.11667 139.529 3.818C140.051 3.51 140.672 3.356 141.391 3.356C142.072 3.356 142.669 3.51 143.183 3.818C143.705 4.11667 144.111 4.55533 144.401 5.134C144.699 5.70333 144.849 6.40333 144.849 7.234ZM139.179 7.234C139.179 7.822 139.253 8.33533 139.403 8.774C139.561 9.20333 139.804 9.53467 140.131 9.768C140.457 10.0013 140.873 10.118 141.377 10.118C141.881 10.118 142.296 10.0013 142.623 9.768C142.949 9.53467 143.187 9.20333 143.337 8.774C143.495 8.33533 143.575 7.822 143.575 7.234C143.575 6.63667 143.495 6.128 143.337 5.708C143.178 5.288 142.935 4.966 142.609 4.742C142.291 4.50867 141.876 4.392 141.363 4.392C140.597 4.392 140.042 4.644 139.697 5.148C139.351 5.652 139.179 6.34733 139.179 7.234ZM149.811 11.14C149.149 11.14 148.556 11.0047 148.033 10.734C147.52 10.4633 147.114 10.0433 146.815 9.474C146.526 8.90467 146.381 8.17667 146.381 7.29C146.381 6.366 146.535 5.61467 146.843 5.036C147.151 4.45733 147.567 4.03267 148.089 3.762C148.621 3.49133 149.223 3.356 149.895 3.356C150.278 3.356 150.647 3.398 151.001 3.482C151.356 3.55667 151.645 3.65 151.869 3.762L151.491 4.784C151.267 4.7 151.006 4.62067 150.707 4.546C150.409 4.47133 150.129 4.434 149.867 4.434C149.363 4.434 148.948 4.54133 148.621 4.756C148.295 4.97067 148.052 5.288 147.893 5.708C147.735 6.128 147.655 6.65067 147.655 7.276C147.655 7.87333 147.735 8.382 147.893 8.802C148.052 9.222 148.29 9.53933 148.607 9.754C148.925 9.96867 149.321 10.076 149.797 10.076C150.208 10.076 150.567 10.034 150.875 9.95C151.193 9.866 151.482 9.76333 151.743 9.642V10.734C151.491 10.8647 151.211 10.9627 150.903 11.028C150.605 11.1027 150.241 11.14 149.811 11.14ZM161.578 3.496V11H160.472V6.212C160.472 6.016 160.477 5.81067 160.486 5.596C160.505 5.38133 160.523 5.17133 160.542 4.966H160.5L158.05 11H157.014L154.634 4.966H154.592C154.611 5.17133 154.62 5.38133 154.62 5.596C154.629 5.81067 154.634 6.03 154.634 6.254V11H153.528V3.496H155.166L157.532 9.53L159.94 3.496H161.578ZM170.497 7.234C170.497 7.85933 170.413 8.41467 170.245 8.9C170.087 9.376 169.853 9.782 169.545 10.118C169.247 10.454 168.878 10.7107 168.439 10.888C168.01 11.056 167.529 11.14 166.997 11.14C166.503 11.14 166.045 11.056 165.625 10.888C165.205 10.7107 164.841 10.454 164.533 10.118C164.225 9.782 163.983 9.376 163.805 8.9C163.637 8.41467 163.553 7.85933 163.553 7.234C163.553 6.40333 163.693 5.70333 163.973 5.134C164.253 4.55533 164.655 4.11667 165.177 3.818C165.7 3.51 166.321 3.356 167.039 3.356C167.721 3.356 168.318 3.51 168.831 3.818C169.354 4.11667 169.76 4.55533 170.049 5.134C170.348 5.70333 170.497 6.40333 170.497 7.234ZM164.827 7.234C164.827 7.822 164.902 8.33533 165.051 8.774C165.21 9.20333 165.453 9.53467 165.779 9.768C166.106 10.0013 166.521 10.118 167.025 10.118C167.529 10.118 167.945 10.0013 168.271 9.768C168.598 9.53467 168.836 9.20333 168.985 8.774C169.144 8.33533 169.223 7.822 169.223 7.234C169.223 6.63667 169.144 6.128 168.985 5.708C168.827 5.288 168.584 4.966 168.257 4.742C167.94 4.50867 167.525 4.392 167.011 4.392C166.246 4.392 165.691 4.644 165.345 5.148C165 5.652 164.827 6.34733 164.827 7.234ZM177.493 4.532H175.043V11H173.825V4.532H171.403V3.496H177.493V4.532ZM182.541 3.356C183.465 3.356 184.207 3.678 184.767 4.322C185.337 4.966 185.621 5.93667 185.621 7.234C185.621 8.08333 185.491 8.802 185.229 9.39C184.977 9.96867 184.618 10.4073 184.151 10.706C183.694 10.9953 183.153 11.14 182.527 11.14C182.145 11.14 181.804 11.0887 181.505 10.986C181.207 10.8833 180.95 10.7527 180.735 10.594C180.53 10.426 180.353 10.244 180.203 10.048H180.119C180.138 10.2067 180.157 10.4073 180.175 10.65C180.194 10.8927 180.203 11.1027 180.203 11.28V14.36H178.971V3.496H179.979L180.147 4.518H180.203C180.353 4.30333 180.53 4.10733 180.735 3.93C180.95 3.75267 181.202 3.61267 181.491 3.51C181.79 3.40733 182.14 3.356 182.541 3.356ZM182.317 4.392C181.813 4.392 181.407 4.49 181.099 4.686C180.791 4.87267 180.567 5.15733 180.427 5.54C180.287 5.92267 180.213 6.408 180.203 6.996V7.234C180.203 7.85 180.269 8.37267 180.399 8.802C180.53 9.23133 180.749 9.558 181.057 9.782C181.375 10.006 181.804 10.118 182.345 10.118C182.803 10.118 183.176 9.992 183.465 9.74C183.764 9.488 183.983 9.14733 184.123 8.718C184.273 8.27933 184.347 7.78 184.347 7.22C184.347 6.36133 184.179 5.67533 183.843 5.162C183.517 4.64867 183.008 4.392 182.317 4.392ZM187.585 11V3.496H188.817V6.576H190.763C191.416 6.576 191.953 6.65533 192.373 6.814C192.793 6.97267 193.105 7.21067 193.311 7.528C193.516 7.836 193.619 8.228 193.619 8.704C193.619 9.17067 193.516 9.57667 193.311 9.922C193.115 10.2673 192.802 10.5333 192.373 10.72C191.953 10.9067 191.397 11 190.707 11H187.585ZM190.595 10.006C191.127 10.006 191.561 9.91733 191.897 9.74C192.233 9.55333 192.401 9.23133 192.401 8.774C192.401 8.31667 192.247 8.00867 191.939 7.85C191.631 7.682 191.187 7.598 190.609 7.598H188.817V10.006H190.595ZM194.865 11V3.496H196.097V11H194.865ZM10.224 26.386C10.224 26.8527 10.084 27.2167 9.804 27.478C9.524 27.7393 9.16467 27.9167 8.726 28.01V28.066C9.19267 28.1313 9.59867 28.2993 9.944 28.57C10.2893 28.8313 10.462 29.242 10.462 29.802C10.462 30.1193 10.4013 30.4133 10.28 30.684C10.168 30.9547 9.99067 31.188 9.748 31.384C9.50533 31.58 9.19267 31.734 8.81 31.846C8.42733 31.9487 7.96533 32 7.424 32H4.19V24.496H7.41C7.942 24.496 8.418 24.5567 8.838 24.678C9.26733 24.79 9.60333 24.986 9.846 25.266C10.098 25.5367 10.224 25.91 10.224 26.386ZM9.188 29.802C9.188 29.3727 9.02467 29.0647 8.698 28.878C8.37133 28.6913 7.89067 28.598 7.256 28.598H5.422V31.006H7.284C7.9 31.006 8.37133 30.9173 8.698 30.74C9.02467 30.5533 9.188 30.2407 9.188 29.802ZM8.978 26.54C8.978 26.1853 8.84733 25.9287 8.586 25.77C8.334 25.602 7.91867 25.518 7.34 25.518H5.422V27.576H7.116C7.72267 27.576 8.18467 27.492 8.502 27.324C8.81933 27.156 8.978 26.8947 8.978 26.54ZM19.4731 32L16.1831 23.236H16.1271C16.1457 23.4227 16.1597 23.6607 16.1691 23.95C16.1877 24.2393 16.2017 24.5567 16.2111 24.902C16.2204 25.238 16.2251 25.5833 16.2251 25.938V32H15.0631V22.004H16.9251L20.0051 30.194H20.0611L23.1971 22.004H25.0451V32H23.7991V25.854C23.7991 25.5273 23.8037 25.2053 23.8131 24.888C23.8224 24.5613 23.8364 24.258 23.8551 23.978C23.8737 23.6887 23.8877 23.446 23.8971 23.25H23.8411L20.5091 32H19.4731ZM34.1202 28.234C34.1202 28.8593 34.0363 29.4147 33.8683 29.9C33.7096 30.376 33.4763 30.782 33.1683 31.118C32.8696 31.454 32.5009 31.7107 32.0623 31.888C31.6329 32.056 31.1523 32.14 30.6203 32.14C30.1256 32.14 29.6683 32.056 29.2483 31.888C28.8283 31.7107 28.4643 31.454 28.1562 31.118C27.8483 30.782 27.6056 30.376 27.4283 29.9C27.2603 29.4147 27.1763 28.8593 27.1763 28.234C27.1763 27.4033 27.3163 26.7033 27.5963 26.134C27.8763 25.5553 28.2776 25.1167 28.8003 24.818C29.3229 24.51 29.9436 24.356 30.6623 24.356C31.3436 24.356 31.9409 24.51 32.4543 24.818C32.9769 25.1167 33.3829 25.5553 33.6723 26.134C33.9709 26.7033 34.1202 27.4033 34.1202 28.234ZM28.4503 28.234C28.4503 28.822 28.5249 29.3353 28.6743 29.774C28.8329 30.2033 29.0756 30.5347 29.4023 30.768C29.7289 31.0013 30.1443 31.118 30.6483 31.118C31.1523 31.118 31.5676 31.0013 31.8943 30.768C32.2209 30.5347 32.4589 30.2033 32.6083 29.774C32.7669 29.3353 32.8463 28.822 32.8463 28.234C32.8463 27.6367 32.7669 27.128 32.6083 26.708C32.4496 26.288 32.2069 25.966 31.8803 25.742C31.5629 25.5087 31.1476 25.392 30.6343 25.392C29.8689 25.392 29.3136 25.644 28.9683 26.148C28.6229 26.652 28.4503 27.3473 28.4503 28.234ZM39.0828 32.14C38.4201 32.14 37.8275 32.0047 37.3048 31.734C36.7915 31.4633 36.3855 31.0433 36.0868 30.474C35.7975 29.9047 35.6528 29.1767 35.6528 28.29C35.6528 27.366 35.8068 26.6147 36.1148 26.036C36.4228 25.4573 36.8381 25.0327 37.3608 24.762C37.8928 24.4913 38.4948 24.356 39.1668 24.356C39.5495 24.356 39.9181 24.398 40.2728 24.482C40.6275 24.5567 40.9168 24.65 41.1408 24.762L40.7628 25.784C40.5388 25.7 40.2775 25.6207 39.9788 25.546C39.6801 25.4713 39.4001 25.434 39.1388 25.434C38.6348 25.434 38.2195 25.5413 37.8928 25.756C37.5661 25.9707 37.3235 26.288 37.1648 26.708C37.0061 27.128 36.9268 27.6507 36.9268 28.276C36.9268 28.8733 37.0061 29.382 37.1648 29.802C37.3235 30.222 37.5615 30.5393 37.8788 30.754C38.1961 30.9687 38.5928 31.076 39.0688 31.076C39.4795 31.076 39.8388 31.034 40.1468 30.95C40.4641 30.866 40.7535 30.7633 41.0148 30.642V31.734C40.7628 31.8647 40.4828 31.9627 40.1748 32.028C39.8761 32.1027 39.5121 32.14 39.0828 32.14ZM47.2374 24.496H48.5814L45.3754 28.108L48.8474 32H47.4194L44.0314 28.192V32H42.7994V24.496H44.0314V28.136L47.2374 24.496ZM56.2435 26.386C56.2435 26.8527 56.1035 27.2167 55.8235 27.478C55.5435 27.7393 55.1842 27.9167 54.7455 28.01V28.066C55.2122 28.1313 55.6182 28.2993 55.9635 28.57C56.3089 28.8313 56.4815 29.242 56.4815 29.802C56.4815 30.1193 56.4209 30.4133 56.2995 30.684C56.1875 30.9547 56.0102 31.188 55.7675 31.384C55.5249 31.58 55.2122 31.734 54.8295 31.846C54.4469 31.9487 53.9849 32 53.4435 32H50.2095V24.496H53.4295C53.9615 24.496 54.4375 24.5567 54.8575 24.678C55.2869 24.79 55.6229 24.986 55.8655 25.266C56.1175 25.5367 56.2435 25.91 56.2435 26.386ZM55.2075 29.802C55.2075 29.3727 55.0442 29.0647 54.7175 28.878C54.3909 28.6913 53.9102 28.598 53.2755 28.598H51.4415V31.006H53.3035C53.9195 31.006 54.3909 30.9173 54.7175 30.74C55.0442 30.5533 55.2075 30.2407 55.2075 29.802ZM54.9975 26.54C54.9975 26.1853 54.8669 25.9287 54.6055 25.77C54.3535 25.602 53.9382 25.518 53.3595 25.518H51.4415V27.576H53.1355C53.7422 27.576 54.2042 27.492 54.5215 27.324C54.8389 27.156 54.9975 26.8947 54.9975 26.54ZM61.1739 24.356C61.8179 24.356 62.3686 24.496 62.8259 24.776C63.2926 25.056 63.6473 25.4527 63.8899 25.966C64.1419 26.47 64.2679 27.0627 64.2679 27.744V28.486H59.1299C59.1486 29.3353 59.3633 29.984 59.7739 30.432C60.1939 30.8707 60.7773 31.09 61.5239 31.09C61.9999 31.09 62.4199 31.048 62.7839 30.964C63.1573 30.8707 63.5399 30.74 63.9319 30.572V31.65C63.5493 31.818 63.1713 31.9393 62.7979 32.014C62.4246 32.098 61.9813 32.14 61.4679 32.14C60.7586 32.14 60.1286 31.9953 59.5779 31.706C59.0366 31.4167 58.6119 30.9873 58.3039 30.418C58.0053 29.8393 57.8559 29.1347 57.8559 28.304C57.8559 27.4827 57.9913 26.778 58.2619 26.19C58.5419 25.602 58.9293 25.1493 59.4239 24.832C59.9279 24.5147 60.5113 24.356 61.1739 24.356ZM61.1599 25.364C60.5719 25.364 60.1053 25.5553 59.7599 25.938C59.4239 26.3113 59.2233 26.834 59.1579 27.506H62.9799C62.9799 27.0767 62.9146 26.7033 62.7839 26.386C62.6533 26.0687 62.4526 25.8213 62.1819 25.644C61.9206 25.4573 61.5799 25.364 61.1599 25.364ZM69.979 29.074C69.979 29.158 69.9743 29.2793 69.965 29.438C69.965 29.5873 69.9603 29.7507 69.951 29.928C69.9416 30.096 69.9323 30.2593 69.923 30.418C69.9136 30.5673 69.9043 30.6887 69.895 30.782L73.913 24.496H75.425V32H74.277V27.576C74.277 27.4267 74.277 27.2307 74.277 26.988C74.2863 26.7453 74.2956 26.5073 74.305 26.274C74.3143 26.0313 74.3236 25.8493 74.333 25.728L70.343 32H68.817V24.496H69.979V29.074ZM86.9757 28.234C86.9757 28.8593 86.8917 29.4147 86.7237 29.9C86.5651 30.376 86.3317 30.782 86.0237 31.118C85.7251 31.454 85.3564 31.7107 84.9177 31.888C84.4884 32.056 84.0077 32.14 83.4757 32.14C82.9811 32.14 82.5237 32.056 82.1037 31.888C81.6837 31.7107 81.3197 31.454 81.0117 31.118C80.7037 30.782 80.4611 30.376 80.2837 29.9C80.1157 29.4147 80.0317 28.8593 80.0317 28.234C80.0317 27.4033 80.1717 26.7033 80.4517 26.134C80.7317 25.5553 81.1331 25.1167 81.6557 24.818C82.1784 24.51 82.7991 24.356 83.5177 24.356C84.1991 24.356 84.7964 24.51 85.3097 24.818C85.8324 25.1167 86.2384 25.5553 86.5277 26.134C86.8264 26.7033 86.9757 27.4033 86.9757 28.234ZM81.3057 28.234C81.3057 28.822 81.3804 29.3353 81.5297 29.774C81.6884 30.2033 81.9311 30.5347 82.2577 30.768C82.5844 31.0013 82.9997 31.118 83.5037 31.118C84.0077 31.118 84.4231 31.0013 84.7497 30.768C85.0764 30.5347 85.3144 30.2033 85.4637 29.774C85.6224 29.3353 85.7017 28.822 85.7017 28.234C85.7017 27.6367 85.6224 27.128 85.4637 26.708C85.3051 26.288 85.0624 25.966 84.7357 25.742C84.4184 25.5087 84.0031 25.392 83.4897 25.392C82.7244 25.392 82.1691 25.644 81.8237 26.148C81.4784 26.652 81.3057 27.3473 81.3057 28.234ZM88.5363 27.492C88.5363 26.4 88.6436 25.4713 88.8583 24.706C89.0823 23.9313 89.4229 23.3153 89.8803 22.858C90.3469 22.3913 90.9443 22.0787 91.6723 21.92C92.2789 21.7893 92.8716 21.6727 93.4503 21.57C94.0289 21.4673 94.5703 21.374 95.0743 21.29L95.2843 22.368C95.0416 22.4053 94.7709 22.452 94.4723 22.508C94.1736 22.5547 93.8703 22.606 93.5623 22.662C93.2543 22.7087 92.9556 22.76 92.6663 22.816C92.3863 22.8627 92.1389 22.9093 91.9243 22.956C91.6163 23.0213 91.3409 23.1333 91.0983 23.292C90.8556 23.4413 90.6456 23.6467 90.4683 23.908C90.3003 24.1693 90.1649 24.4913 90.0623 24.874C89.9596 25.2567 89.8989 25.7093 89.8803 26.232H89.9643C90.0949 26.0547 90.2723 25.8727 90.4963 25.686C90.7296 25.4993 91.0049 25.3407 91.3223 25.21C91.6489 25.0793 92.0176 25.014 92.4283 25.014C93.0816 25.014 93.6229 25.1587 94.0523 25.448C94.4909 25.728 94.8176 26.12 95.0323 26.624C95.2563 27.128 95.3683 27.716 95.3683 28.388C95.3683 29.2187 95.2236 29.914 94.9343 30.474C94.6449 31.034 94.2436 31.454 93.7303 31.734C93.2169 32.0047 92.6196 32.14 91.9383 32.14C91.4249 32.14 90.9583 32.042 90.5383 31.846C90.1183 31.6407 89.7589 31.342 89.4603 30.95C89.1616 30.558 88.9329 30.0727 88.7743 29.494C88.6156 28.9153 88.5363 28.248 88.5363 27.492ZM92.0363 31.118C92.4469 31.118 92.8016 31.034 93.1003 30.866C93.4083 30.698 93.6463 30.4227 93.8143 30.04C93.9823 29.6573 94.0663 29.1487 94.0663 28.514C94.0663 27.7487 93.9216 27.1467 93.6323 26.708C93.3523 26.26 92.8856 26.036 92.2323 26.036C91.8216 26.036 91.4483 26.1293 91.1123 26.316C90.7763 26.4933 90.4963 26.6987 90.2723 26.932C90.0483 27.1653 89.8896 27.3613 89.7963 27.52C89.7963 27.9773 89.8289 28.4207 89.8943 28.85C89.9596 29.2793 90.0716 29.6667 90.2303 30.012C90.3983 30.348 90.6269 30.6187 90.9163 30.824C91.2149 31.02 91.5883 31.118 92.0363 31.118ZM103.021 32H101.775V25.518H99.5631C99.4698 26.7033 99.3531 27.716 99.2131 28.556C99.0731 29.3867 98.8958 30.0633 98.6811 30.586C98.4665 31.1087 98.2098 31.4913 97.9111 31.734C97.6125 31.9767 97.2625 32.098 96.8611 32.098C96.7398 32.098 96.6185 32.0887 96.4971 32.07C96.3851 32.0607 96.2918 32.0373 96.2171 32V31.076C96.2731 31.0947 96.3338 31.1087 96.3991 31.118C96.4645 31.1273 96.5298 31.132 96.5951 31.132C96.8005 31.132 96.9871 31.048 97.1551 30.88C97.3231 30.712 97.4725 30.4553 97.6031 30.11C97.7431 29.7647 97.8691 29.3307 97.9811 28.808C98.0931 28.276 98.1911 27.6507 98.2751 26.932C98.3591 26.2133 98.4338 25.4013 98.4991 24.496H103.021V32ZM108.245 24.37C109.16 24.37 109.836 24.5707 110.275 24.972C110.714 25.3733 110.933 26.0127 110.933 26.89V32H110.037L109.799 30.936H109.743C109.528 31.2067 109.304 31.4353 109.071 31.622C108.847 31.7993 108.586 31.93 108.287 32.014C107.998 32.098 107.643 32.14 107.223 32.14C106.775 32.14 106.369 32.0607 106.005 31.902C105.65 31.7433 105.37 31.5007 105.165 31.174C104.96 30.838 104.857 30.418 104.857 29.914C104.857 29.1673 105.151 28.5933 105.739 28.192C106.327 27.7813 107.232 27.5573 108.455 27.52L109.729 27.478V27.03C109.729 26.4047 109.594 25.9707 109.323 25.728C109.052 25.4853 108.67 25.364 108.175 25.364C107.783 25.364 107.41 25.4247 107.055 25.546C106.7 25.658 106.369 25.7887 106.061 25.938L105.683 25.014C106.01 24.8367 106.397 24.6873 106.845 24.566C107.293 24.4353 107.76 24.37 108.245 24.37ZM108.609 28.374C107.676 28.4113 107.027 28.5607 106.663 28.822C106.308 29.0833 106.131 29.452 106.131 29.928C106.131 30.348 106.257 30.656 106.509 30.852C106.77 31.048 107.102 31.146 107.503 31.146C108.138 31.146 108.665 30.9733 109.085 30.628C109.505 30.2733 109.715 29.732 109.715 29.004V28.332L108.609 28.374ZM116.261 32.14C115.598 32.14 115.005 32.0047 114.483 31.734C113.969 31.4633 113.563 31.0433 113.265 30.474C112.975 29.9047 112.831 29.1767 112.831 28.29C112.831 27.366 112.985 26.6147 113.293 26.036C113.601 25.4573 114.016 25.0327 114.539 24.762C115.071 24.4913 115.673 24.356 116.345 24.356C116.727 24.356 117.096 24.398 117.451 24.482C117.805 24.5567 118.095 24.65 118.319 24.762L117.941 25.784C117.717 25.7 117.455 25.6207 117.157 25.546C116.858 25.4713 116.578 25.434 116.317 25.434C115.813 25.434 115.397 25.5413 115.071 25.756C114.744 25.9707 114.501 26.288 114.343 26.708C114.184 27.128 114.105 27.6507 114.105 28.276C114.105 28.8733 114.184 29.382 114.343 29.802C114.501 30.222 114.739 30.5393 115.057 30.754C115.374 30.9687 115.771 31.076 116.247 31.076C116.657 31.076 117.017 31.034 117.325 30.95C117.642 30.866 117.931 30.7633 118.193 30.642V31.734C117.941 31.8647 117.661 31.9627 117.353 32.028C117.054 32.1027 116.69 32.14 116.261 32.14ZM125.157 25.532H122.707V32H121.489V25.532H119.067V24.496H125.157V25.532ZM127.797 29.074C127.797 29.158 127.793 29.2793 127.783 29.438C127.783 29.5873 127.779 29.7507 127.769 29.928C127.76 30.096 127.751 30.2593 127.741 30.418C127.732 30.5673 127.723 30.6887 127.713 30.782L131.731 24.496H133.243V32H132.095V27.576C132.095 27.4267 132.095 27.2307 132.095 26.988C132.105 26.7453 132.114 26.5073 132.123 26.274C132.133 26.0313 132.142 25.8493 132.151 25.728L128.161 32H126.635V24.496H127.797V29.074Z" fill="#009FE3"/>
</g>
<defs>
<filter id="filter0_d_195_416" x="0.191406" y="0.360352" width="199.906" height="39.7793" filterUnits="userSpaceOnUse" color-interpolation-filters="sRGB">
<feFlood flood-opacity="0" result="BackgroundImageFix"/>
<feColorMatrix in="SourceAlpha" type="matrix" values="0 0 0 0 0 0 0 0 0 0 0 0 0 0 0 0 0 0 127 0" result="hardAlpha"/>
<feOffset dy="4"/>
<feGaussianBlur stdDeviation="2"/>
<feComposite in2="hardAlpha" operator="out"/>
<feColorMatrix type="matrix" values="0 0 0 0 0 0 0 0 0 0 0 0 0 0 0 0 0 0 0.25 0"/>
<feBlend mode="normal" in2="BackgroundImageFix" result="effect1_dropShadow_195_416"/>
<feBlend mode="normal" in="SourceGraphic" in2="effect1_dropShadow_195_416" result="shape"/>
</filter>
</defs>
</svg>
